/vscmnt/brussel_pixiu_data/_data_brussel/112/vsc11236/PredSimResults/SUBJ06mtu3D/weighted-LRposFixed/trackIG/worker_02.mot
version=1
nRows=5
nColumns=50
inDegrees=yes
endheader
                time	         pelvis_tilt	         pelvis_list	     pelvis_rotation	           pelvis_tx	           pelvis_ty	           pelvis_tz	       hip_flexion_r	     hip_adduction_r	      hip_rotation_r	        knee_angle_r	       ankle_angle_r	         mtp_angle_r	       hip_flexion_l	     hip_adduction_l	      hip_rotation_l	        knee_angle_l	       ankle_angle_l	         mtp_angle_l	    lumbar_extension	      lumbar_bending	     lumbar_rotation	 ercspn_r/activation	 intobl_r/activation	 extobl_r/activation	    abd_r/activation	    add_r/activation	hamstrings_r/activation	bifemsh_r/activation	glut_max_r/activation	iliopsoas_r/activation	rect_fem_r/activation	  vasti_r/activation	gastroc_r/activation	 soleus_r/activation	tib_ant_r/activation	 ercspn_l/activation	 intobl_l/activation	 extobl_l/activation	    abd_l/activation	    add_l/activation	hamstrings_l/activation	bifemsh_l/activation	glut_max_l/activation	iliopsoas_l/activation	rect_fem_l/activation	  vasti_l/activation	gastroc_l/activation	 soleus_l/activation	tib_ant_l/activation	
          0.00000000	         -7.86899927	         -4.70199411	          9.62411738	          0.00000000	          0.92745988	         -0.01664471	         31.01395282	          0.57389150	         -6.03656949	         -1.19558986	          6.47258707	          0.21157136	         -9.86289960	         -4.88386038	          7.53775029	         -6.91200760	         10.16822764	         29.32341215	         -1.54622115	          2.60519798	         -3.02154151	          0.10020069	          0.17743351	          0.02804383	          0.01105889	          0.09554996	          0.06543697	          0.22260712	          0.01015707	          0.08838584	          0.00999999	          0.00999999	          0.02145826	          0.00999999	          0.28503500	          0.05699023	          0.00999999	          0.00999999	          0.05860600	          0.00999999	          0.01755855	          0.13595590	          0.05125296	          0.40625622	          0.00999999	          0.00999999	          0.35009092	          0.32883822	          0.01764021	
          0.01292214	         -7.97421337	         -4.62809592	          9.67505973	          0.01724879	          0.92524074	         -0.01626933	         31.09925467	          0.67859086	         -5.79333223	         -2.81211020	          6.02682051	          0.21152685	        -10.17492839	         -4.86999038	          7.14147695	         -8.10644958	          9.52935425	         31.23702285	         -1.25683804	          2.93472065	         -3.17871041	          0.08244466	          0.14630918	          0.02307433	          0.00999999	          0.12954464	          0.06220280	          0.18316011	          0.05639411	          0.07272346	          0.00999999	          0.00999999	          0.02699231	          0.01780905	          0.29488729	          0.09006545	          0.00999999	          0.00999999	          0.04822074	          0.03567605	          0.01536567	          0.11186388	          0.04217069	          0.41524174	          0.00999999	          0.00999999	          0.32252488	          0.31014428	          0.01451428	
          0.02584429	         -8.05835760	         -4.54416630	          9.66603406	          0.03491460	          0.92326636	         -0.01580570	         30.99362568	          0.77567007	         -5.54393769	         -4.34294817	          5.54419378	          0.19739317	        -10.38011807	         -4.83200155	          6.71522391	         -9.57435977	          8.73467942	         33.19803929	         -0.94916506	          3.26725383	         -3.31240136	          0.07514088	          0.12038251	          0.01898545	          0.05730775	          0.10658873	          0.06557275	          0.15070328	          0.09389758	          0.05983652	          0.00999999	          0.00999999	          0.02220915	          0.01465320	          0.34955478	          0.09764762	          0.00999999	          0.00999999	          0.03967580	          0.02935409	          0.01784302	          0.09204108	          0.03469785	          0.40906544	          0.01000000	          0.01795248	          0.28412956	          0.28630890	          0.01194229	
          0.03876643	         -8.12389464	         -4.44776010	          9.59779973	          0.05272969	          0.92177835	         -0.01523410	         30.72593767	          0.88912462	         -5.33678678	         -5.59542587	          4.90025782	          0.17322550	        -10.38267915	         -4.75950048	          6.26673837	        -11.43630730	          7.73129283	         35.18970190	         -0.65068568	          3.59705468	         -3.41612547	          0.08369055	          0.09905017	          0.01562114	          0.11167816	          0.12801642	          0.06221530	          0.12399796	          0.13618432	          0.04923321	          0.00999999	          0.00999999	          0.01827358	          0.01205659	          0.38406866	          0.12920152	          0.00999999	          0.00999999	          0.03264506	          0.04090429	          0.02121480	          0.07573097	          0.02854923	          0.40006356	          0.01215368	          0.01477122	          0.23378048	          0.24648567	          0.00999999	
          0.05168857	         -8.17025760	         -4.34402064	          9.47421043	          0.07045696	          0.92094674	         -0.01457455	         30.37710340	          1.02135204	         -5.16294311	         -6.75989642	          4.40984034	          0.14282091	        -10.09289720	         -4.64977134	          5.79291858	        -13.81833661	          6.51614436	         37.10220701	         -0.38128252	          3.93200005	         -3.48565885	          0.08073167	          0.08149802	          0.01285300	          0.14851578	          0.14412028	          0.05830907	          0.10202495	          0.16312844	          0.04050886	          0.00999999	          0.01652529	          0.01503542	          0.00999999	          0.40616749	          0.15919052	          0.00999999	          0.00999999	          0.02686021	          0.06193136	          0.02197692	          0.06231109	          0.02349017	          0.37488355	          0.00999999	          0.01215369	          0.19235349	          0.20280726	          0.00999999	
